# xmcd CD database file
#
# Track frame offsets:
#	150
#	13200
#	26129
#	39539
#	54813
#	68417
#	82688
#	94063
#	107308
#	120971
#	135718
#	150835
#	167752
#	181228
#	195210
#	210155
#	223133
#	235775
#	250076
#	262839
#	299852
#
# Disc length: 4177 seconds
#
# Revision: 0
# Processed by: cddbd v1.5.1PL0 Copyright (c) Steve Scherf et al.
# Submitted via: CDex 1.51
#
DISCID=04104f15
DTITLE=Billy Strayhorn - Passion Flower
DYEAR=2004
DGENRE=Jazz
TTITLE0=(I Want) Something to Live For
TTITLE1=Grievin'
TTITLE2=Day Dream
TTITLE3=After All
TTITLE4=Clementine
TTITLE5=Passion Flower
TTITLE6=Raincheck
TTITLE7=Chelsea Bridge
TTITLE8=Kissing Bug
TTITLE9=Midriff
TTITLE10=A Flower is a Lovesome Thing
TTITLE11=Flippant Flurry
TTITLE12=Progressive Gavotte
TTITLE13=Lotus Blosom
TTITLE14=Lush Life
TTITLE15=Snibor
TTITLE16=The Eight Veil
TTITLE17=Brown Betty
TTITLE18=Johnny Come Lately
TTITLE19=Take the "A" Train
TTITLE20=Satin Doll
EXTD=YEAR: 2004
EXTT0=
EXTT1=
EXTT2=
EXTT3=
EXTT4=
EXTT5=
EXTT6=
EXTT7=
EXTT8=
EXTT9=
EXTT10=
EXTT11=
EXTT12=
EXTT13=
EXTT14=
EXTT15=
EXTT16=
EXTT17=
EXTT18=
EXTT19=
EXTT20=
PLAYORDER=
